<svg xmlns="http://www.w3.org/2000/svg" version="1.1" xmlns:xlink="http://www.w3.org/1999/xlink" xmlns:svgjs="http://svgjs.dev/svgjs" width="2000" height="2250" viewBox="0 0 2000 2250"><g transform="matrix(1,0,0,1,0,0)"><svg viewBox="0 0 320 360" data-background-color="#6be5bb" preserveAspectRatio="xMidYMid meet" height="2250" width="2000" xmlns="http://www.w3.org/2000/svg" xmlns:xlink="http://www.w3.org/1999/xlink"><g id="tight-bounds" transform="matrix(1,0,0,1,0,0)"><svg viewBox="0 0 320 360" height="360" width="320"><g><svg></svg></g><g><svg viewBox="0 0 320 360" height="360" width="320"><g><path d="M297.491 100.645c-12.426-21.51-112.674-79.355-137.491-79.355-24.817 0-125.028 57.845-137.491 79.355-11.591 20.02-11.591 138.726 0 158.746 12.463 21.474 112.674 79.319 137.491 79.319 24.817 0 125.064-57.845 137.491-79.355 11.591-20.02 11.591-138.69 0-158.71zM309.481 93.705c-14.461-24.998-119.469-86.295-149.481-86.295-30.012 0-135.02 61.297-149.481 86.295-14.025 24.199-14.025 148.391 0 172.59 14.461 24.998 119.469 86.295 149.481 86.295 30.012 0 135.02-61.297 149.481-86.259 14.025-24.235 14.025-148.427 0-172.626zM300.906 261.353c-12.753 22.055-115.472 81.317-140.906 81.318-25.434 0-128.153-59.298-140.906-81.354-11.881-20.529-11.881-142.178 0-162.707 12.753-22.019 115.472-81.281 140.906-81.281 25.434 0 128.153 59.298 140.906 81.318 11.881 20.529 11.881 142.178 0 162.706z" fill="#111827" fill-rule="nonzero" stroke="none" stroke-width="1" stroke-linecap="butt" stroke-linejoin="miter" stroke-miterlimit="10" stroke-dasharray="" stroke-dashoffset="0" font-family="none" font-weight="none" font-size="none" text-anchor="none" style="mix-blend-mode: normal" data-fill-palette-color="tertiary"></path></g><g transform="matrix(1,0,0,1,101.78002894356007,90)"><svg viewBox="0 0 116.43994211287988 180" height="180" width="116.43994211287988"><g><svg viewBox="0 0 116.43994211287989 180.00000000000003" height="180" width="116.43994211287988"><g><svg viewBox="0 0 116.43994211287989 180.00000000000003" height="180.00000000000003" width="116.43994211287989"><g id="textblocktransform"><svg viewBox="0 0 116.43994211287989 180.00000000000003" height="180.00000000000003" width="116.43994211287989" id="textblock"><g><svg viewBox="0 0 116.43994211287989 180.00000000000003" height="180.00000000000003" width="116.43994211287989"><g transform="matrix(1,0,0,1,0,0)"><svg width="116.43994211287989" viewBox="3 -34.55 22.35 34.55" height="180.00000000000003" data-palette-color="#6be5bb"><path d="M25.35 0L18.5 0 12.4-13.95 11.8-13.95 9.35-13.95 9.35 0 3 0 3-34.55 11.15-34.55Q23.65-34.55 23.65-24.4L23.65-24.4Q23.65-21.25 22.25-18.82 20.85-16.4 18.05-15.15L18.05-15.15 25.35 0ZM11.45-18.55Q14.4-18.55 15.73-19.95 17.05-21.35 17.05-24.4L17.05-24.4Q17.05-27.25 15.68-28.58 14.3-29.9 11.15-29.9L11.15-29.9 9.35-29.9 9.35-18.55 11.45-18.55Z" opacity="1" transform="matrix(1,0,0,1,0,0)" fill="#6be5bb" class="wordmark-text-0" data-fill-palette-color="quaternary" id="text-0"></path></svg></g></svg></g></svg></g></svg></g><g></g></svg></g></svg></g></svg></g><defs></defs></svg><rect width="320" height="360" fill="none" stroke="none" visibility="hidden"></rect></g></svg></g></svg>
