<svg xmlns="http://www.w3.org/2000/svg" version="1.1" xmlns:xlink="http://www.w3.org/1999/xlink" xmlns:svgjs="http://svgjs.dev/svgjs" width="2000" height="1500" viewBox="0 0 2000 1500"><rect width="2000" height="1500" fill="#0c1d36"></rect><g transform="matrix(0.75,0,0,0.75,249.090909090909,384.17030506201854)"><svg viewBox="0 0 396 193" data-background-color="#0c1d36" preserveAspectRatio="xMidYMid meet" height="974" width="2000" xmlns="http://www.w3.org/2000/svg" xmlns:xlink="http://www.w3.org/1999/xlink"><g id="tight-bounds" transform="matrix(1,0,0,1,0.2400000000000091,0.15876433306658555)"><svg viewBox="0 0 395.52 192.68247133386683" height="192.68247133386683" width="395.52"><g><svg viewBox="0 0 397.4975999999999 193.64588369053612" height="192.68247133386683" width="395.52"><g><rect width="397.4975999999999" height="5.931117656857682" x="0" y="106.41926490415027" fill="#f9cc0b" opacity="1" stroke-width="0" stroke="transparent" fill-opacity="1" class="rect-yte-0" data-fill-palette-color="secondary" rx="1%" id="yte-0" data-palette-color="#f9cc0b"></rect></g><g transform="matrix(1,0,0,1,0.9887999999999693,127.8768685737244)"><svg viewBox="0 0 395.52 65.76901511681173" height="65.76901511681173" width="395.52"><g id="textblocktransform"><svg viewBox="0 0 395.52 65.76901511681173" height="65.76901511681173" width="395.52" id="textblock"><g><svg viewBox="0 0 395.52 65.76901511681173" height="65.76901511681173" width="395.52"><g transform="matrix(1,0,0,1,0,0)"><svg width="395.52" viewBox="4.6 -35.7 218.28 36.300000000000004" height="65.76901511681173" data-palette-color="#f9cc0b"><path d="M8.3 0L4.6 0 4.6-32.85 14.65-32.85Q17.95-32.85 20.5-31.98 23.05-31.1 24.5-29.1 25.95-27.1 25.95-23.75L25.95-23.75Q25.95-20.55 24.5-18.43 23.05-16.3 20.5-15.25 17.95-14.2 14.65-14.2L14.65-14.2 8.3-14.2 8.3 0ZM26.85 0L22.65 0 13.9-15.2 16.9-17 26.85 0ZM8.3-29.85L8.3-17.2 14.05-17.2Q18.05-17.2 20.15-18.82 22.25-20.45 22.25-23.75L22.25-23.75Q22.25-27.1 20.15-28.48 18.05-29.85 14.05-29.85L14.05-29.85 8.3-29.85ZM37.9 0.6L37.9 0.6Q35.9 0.6 34.3-0.2 32.7-1 31.75-2.53 30.8-4.05 30.8-6.2L30.8-6.2Q30.8-10.2 34.42-12.33 38.05-14.45 45.9-15.3L45.9-15.3Q45.9-16.9 45.47-18.43 45.05-19.95 43.92-20.88 42.8-21.8 40.7-21.8L40.7-21.8Q38.5-21.8 36.62-20.95 34.75-20.1 33.35-19.15L33.35-19.15 31.9-21.65Q32.95-22.35 34.4-23.1 35.85-23.85 37.6-24.35 39.35-24.85 41.3-24.85L41.3-24.85Q44.2-24.85 46.02-23.6 47.85-22.35 48.67-20.15 49.5-17.95 49.5-15L49.5-15 49.5 0 46.5 0 46.2-2.95 46.05-2.95Q44.3-1.5 42.25-0.45 40.2 0.6 37.9 0.6ZM38.85-2.35L38.85-2.35Q40.7-2.35 42.35-3.23 44-4.1 45.9-5.75L45.9-5.75 45.9-12.85Q41.6-12.35 39.1-11.48 36.6-10.6 35.5-9.35 34.4-8.1 34.4-6.45L34.4-6.45Q34.4-4.3 35.72-3.33 37.05-2.35 38.85-2.35ZM67.05 0.6L67.05 0.6Q63.85 0.6 61.25-0.93 58.65-2.45 57.1-5.28 55.55-8.1 55.55-12.1L55.55-12.1Q55.55-16 57.1-18.88 58.65-21.75 61.12-23.3 63.6-24.85 66.4-24.85L66.4-24.85Q69.4-24.85 71.55-23.45 73.7-22.05 74.82-19.53 75.95-17 75.95-13.5L75.95-13.5Q75.95-12.95 75.9-12.35 75.85-11.75 75.75-11.3L75.75-11.3 58.4-11.3 58.35-13.95 72.7-13.95Q72.7-17.85 71.05-19.88 69.4-21.9 66.45-21.9L66.45-21.9Q64.65-21.9 62.95-20.88 61.25-19.85 60.15-17.68 59.05-15.5 59.05-12.1L59.05-12.1Q59.05-8.85 60.2-6.7 61.35-4.55 63.27-3.45 65.2-2.35 67.5-2.35L67.5-2.35Q69.3-2.35 70.8-2.9 72.3-3.45 73.65-4.3L73.65-4.3 75-1.9Q73.45-0.9 71.52-0.15 69.6 0.6 67.05 0.6ZM90.19 0.6L90.19 0.6Q85.69 0.6 82.97-2.73 80.24-6.05 80.24-12.1L80.24-12.1Q80.24-16 81.72-18.85 83.19-21.7 85.59-23.28 87.99-24.85 90.79-24.85L90.79-24.85Q92.94-24.85 94.52-24.1 96.09-23.35 97.69-22L97.69-22 97.54-26.2 97.54-35.7 101.14-35.7 101.14 0 98.14 0 97.84-2.95 97.69-2.95Q96.29-1.5 94.37-0.45 92.44 0.6 90.19 0.6ZM90.99-2.5L90.99-2.5Q92.74-2.5 94.34-3.38 95.94-4.25 97.54-5.95L97.54-5.95 97.54-19.1Q95.89-20.55 94.42-21.15 92.94-21.75 91.34-21.75L91.34-21.75Q89.29-21.75 87.62-20.53 85.94-19.3 84.97-17.13 83.99-14.95 83.99-12.1L83.99-12.1Q83.99-7.65 85.82-5.08 87.64-2.5 90.99-2.5ZM123.34 0L119.99 0 119.99-32.85 124.54-32.85 130.99-14.85Q131.59-13.15 132.19-11.4 132.79-9.65 133.39-7.9L133.39-7.9 133.59-7.9Q134.19-9.65 134.76-11.4 135.34-13.15 135.94-14.85L135.94-14.85 142.29-32.85 146.89-32.85 146.89 0 143.44 0 143.44-19Q143.44-20.4 143.51-22.05 143.59-23.7 143.69-25.38 143.79-27.05 143.89-28.5L143.89-28.5 143.69-28.5 141.09-21.05 134.69-3.4 132.09-3.4 125.64-21.05 123.04-28.5 122.84-28.5Q122.94-27.05 123.06-25.38 123.19-23.7 123.26-22.05 123.34-20.4 123.34-19L123.34-19 123.34 0ZM161.19 0.6L161.19 0.6Q159.19 0.6 157.59-0.2 155.99-1 155.04-2.53 154.09-4.05 154.09-6.2L154.09-6.2Q154.09-10.2 157.71-12.33 161.34-14.45 169.19-15.3L169.19-15.3Q169.19-16.9 168.76-18.43 168.34-19.95 167.21-20.88 166.09-21.8 163.99-21.8L163.99-21.8Q161.79-21.8 159.91-20.95 158.04-20.1 156.64-19.15L156.64-19.15 155.19-21.65Q156.24-22.35 157.69-23.1 159.14-23.85 160.89-24.35 162.64-24.85 164.59-24.85L164.59-24.85Q167.49-24.85 169.31-23.6 171.14-22.35 171.96-20.15 172.79-17.95 172.79-15L172.79-15 172.79 0 169.79 0 169.49-2.95 169.34-2.95Q167.59-1.5 165.54-0.45 163.49 0.6 161.19 0.6ZM162.14-2.35L162.14-2.35Q163.99-2.35 165.64-3.23 167.29-4.1 169.19-5.75L169.19-5.75 169.19-12.85Q164.89-12.35 162.39-11.48 159.89-10.6 158.79-9.35 157.69-8.1 157.69-6.45L157.69-6.45Q157.69-4.3 159.01-3.33 160.34-2.35 162.14-2.35ZM186.93 0.6L186.93 0.6Q184.33 0.6 181.98-0.38 179.63-1.35 177.93-2.75L177.93-2.75 179.78-5.2Q181.33-3.95 183.06-3.1 184.78-2.25 187.08-2.25L187.08-2.25Q189.58-2.25 190.83-3.45 192.08-4.65 192.08-6.3L192.08-6.3Q192.08-7.6 191.23-8.47 190.38-9.35 189.11-9.98 187.83-10.6 186.43-11.1L186.43-11.1Q184.73-11.7 183.03-12.55 181.33-13.4 180.21-14.7 179.08-16 179.08-18.05L179.08-18.05Q179.08-20.9 181.26-22.88 183.43-24.85 187.33-24.85L187.33-24.85Q189.53-24.85 191.43-24.05 193.33-23.25 194.68-22.15L194.68-22.15 192.93-19.8Q191.68-20.7 190.36-21.33 189.03-21.95 187.33-21.95L187.33-21.95Q184.93-21.95 183.78-20.83 182.63-19.7 182.63-18.25L182.63-18.25Q182.63-17.05 183.41-16.28 184.18-15.5 185.43-14.95 186.68-14.4 188.08-13.85L188.08-13.85Q189.88-13.2 191.61-12.38 193.33-11.55 194.48-10.2 195.63-8.85 195.63-6.5L195.63-6.5Q195.63-4.6 194.63-2.98 193.63-1.35 191.68-0.38 189.73 0.6 186.93 0.6ZM205.13 0L201.53 0 201.53-24.25 204.53-24.25 204.83-19.8 204.98-19.8Q206.23-22.1 208.01-23.48 209.78-24.85 211.88-24.85L211.88-24.85Q212.63-24.85 213.23-24.73 213.83-24.6 214.38-24.35L214.38-24.35 213.68-21.15Q213.08-21.35 212.61-21.45 212.13-21.55 211.38-21.55L211.38-21.55Q209.83-21.55 208.13-20.28 206.43-19 205.13-15.8L205.13-15.8 205.13 0ZM222.13 0L218.53 0 218.53-24.25 222.13-24.25 222.13 0ZM220.38-29.45L220.38-29.45Q219.33-29.45 218.6-30.15 217.88-30.85 217.88-32L217.88-32Q217.88-33.05 218.6-33.75 219.33-34.45 220.38-34.45L220.38-34.45Q221.48-34.45 222.18-33.75 222.88-33.05 222.88-32L222.88-32Q222.88-30.85 222.18-30.15 221.48-29.45 220.38-29.45Z" opacity="1" transform="matrix(1,0,0,1,0,0)" fill="#f9cc0b" class="wordmark-text-0" data-fill-palette-color="primary" id="text-0"></path></svg></g></svg></g></svg></g></svg></g><g transform="matrix(1,0,0,1,140.68280756254813,0)"><svg viewBox="0 0 116.13198487490365 90.89277889143382" height="90.89277889143382" width="116.13198487490365"><g><svg xmlns="http://www.w3.org/2000/svg" xmlns:xlink="http://www.w3.org/1999/xlink" version="1.1" x="8" y="0" viewBox="-1.5178079157590597e-7 -1.5178079157742946e-7 109.90826633373092 99.76700015178079" enable-background="new 0 0 109.909 99.768" xml:space="preserve" id="icon-0" width="100.13198487490365" height="90.89277889143382" class="icon-icon-0" data-fill-palette-color="accent"><path d="M77.892 72.209H22.443A1.815 1.815 0 0 0 20.628 74.024V97.951C20.628 98.955 21.441 99.767 22.443 99.767H77.892A1.817 1.817 0 0 0 79.708 97.951V74.024A1.816 1.816 0 0 0 77.892 72.209M78.386 79.964V82.605C78.386 82.789 78.152 82.936 77.864 82.936H73.548C73.259 82.936 73.025 82.789 73.025 82.605V79.964C73.025 79.782 73.259 79.634 73.548 79.634H77.864C78.152 79.634 78.386 79.782 78.386 79.964M71.702 90.36A0.33 0.33 0 0 1 71.375 90.691H68.649A0.33 0.33 0 0 1 68.321 90.36V87.72C68.321 87.538 68.468 87.391 68.649 87.391H71.375C71.556 87.391 71.702 87.538 71.702 87.72zM77.532 91.104C77.958 91.104 78.305 91.252 78.305 91.434V94.075C78.305 94.257 77.957 94.404 77.532 94.404H71.157C70.729 94.404 70.384 94.257 70.384 94.075V91.434C70.384 91.252 70.73 91.104 71.157 91.104zM21.949 87.72C21.949 87.538 22.226 87.391 22.569 87.391H27.682C28.025 87.391 28.302 87.538 28.302 87.72V90.361C28.302 90.544 28.025 90.692 27.682 90.692H22.569C22.227 90.692 21.949 90.544 21.949 90.361zM21.865 86.483V83.842C21.865 83.659 22.096 83.511 22.381 83.511H26.631C26.916 83.511 27.147 83.659 27.147 83.842V86.483C27.147 86.666 26.916 86.813 26.631 86.813H22.381C22.096 86.813 21.865 86.666 21.865 86.483M27.972 86.813A0.33 0.33 0 0 1 27.642 86.483V83.842A0.33 0.33 0 0 1 27.972 83.511H30.695A0.33 0.33 0 0 1 31.024 83.842V86.483C31.024 86.666 30.877 86.813 30.695 86.813zM28.797 87.72C28.797 87.538 28.944 87.391 29.127 87.391H31.85A0.33 0.33 0 0 1 32.18 87.72V90.361A0.33 0.33 0 0 1 31.85 90.692H29.127A0.33 0.33 0 0 1 28.797 90.361zM31.603 86.483V83.842A0.33 0.33 0 0 1 31.933 83.511H34.656A0.33 0.33 0 0 1 34.986 83.842V86.483C34.986 86.666 34.839 86.813 34.656 86.813H31.933A0.33 0.33 0 0 1 31.603 86.483M30.777 91.434A0.33 0.33 0 0 1 31.108 91.104H33.831A0.33 0.33 0 0 1 34.161 91.434V94.075A0.33 0.33 0 0 1 33.831 94.404H31.108A0.33 0.33 0 0 1 30.777 94.075zM33.005 90.691A0.33 0.33 0 0 1 32.675 90.36V87.72A0.33 0.33 0 0 1 33.005 87.391H35.728A0.33 0.33 0 0 1 36.059 87.72V90.361A0.33 0.33 0 0 1 35.728 90.692zM35.893 86.813A0.33 0.33 0 0 1 35.563 86.483V83.842A0.33 0.33 0 0 1 35.893 83.511H38.616A0.33 0.33 0 0 1 38.946 83.842V86.483A0.33 0.33 0 0 1 38.616 86.813zM36.635 87.72C36.635 87.538 36.782 87.391 36.965 87.391H39.688A0.33 0.33 0 0 1 40.019 87.72V90.361A0.33 0.33 0 0 1 39.688 90.692H36.965A0.33 0.33 0 0 1 36.635 90.361zM39.854 86.813A0.33 0.33 0 0 1 39.523 86.483V83.842A0.33 0.33 0 0 1 39.854 83.511H42.576A0.33 0.33 0 0 1 42.907 83.842V86.483A0.33 0.33 0 0 1 42.576 86.813zM40.596 87.72A0.33 0.33 0 0 1 40.926 87.391H43.649C43.831 87.391 43.978 87.538 43.978 87.72V90.361A0.33 0.33 0 0 1 43.649 90.692H40.926A0.33 0.33 0 0 1 40.596 90.361zM43.484 86.483V83.842A0.33 0.33 0 0 1 43.814 83.511H46.538A0.33 0.33 0 0 1 46.867 83.842V86.483C46.867 86.666 46.72 86.813 46.538 86.813H43.814A0.33 0.33 0 0 1 43.484 86.483M42.659 91.434A0.33 0.33 0 0 1 42.989 91.104H45.713A0.33 0.33 0 0 1 46.043 91.434V94.075A0.33 0.33 0 0 1 45.713 94.404H42.989A0.33 0.33 0 0 1 42.659 94.075zM44.887 90.691A0.33 0.33 0 0 1 44.557 90.36V87.72C44.557 87.538 44.704 87.391 44.887 87.391H47.609A0.33 0.33 0 0 1 47.94 87.72V90.361A0.33 0.33 0 0 1 47.609 90.692zM47.445 86.483V83.842A0.33 0.33 0 0 1 47.775 83.511H50.498A0.33 0.33 0 0 1 50.828 83.842V86.483C50.828 86.666 50.681 86.813 50.498 86.813H47.775A0.33 0.33 0 0 1 47.445 86.483M46.619 91.434A0.33 0.33 0 0 1 46.95 91.104H49.672A0.33 0.33 0 0 1 50.003 91.434V94.075A0.33 0.33 0 0 1 49.672 94.404H46.95A0.33 0.33 0 0 1 46.619 94.075zM48.847 90.691A0.33 0.33 0 0 1 48.517 90.36V87.72A0.33 0.33 0 0 1 48.847 87.391H51.571C51.753 87.391 51.9 87.538 51.9 87.72V90.361A0.33 0.33 0 0 1 51.571 90.692zM54.458 83.512C54.641 83.512 54.79 83.66 54.79 83.843V86.484A0.33 0.33 0 0 1 54.458 86.814H51.735A0.33 0.33 0 0 1 51.405 86.484V83.843A0.33 0.33 0 0 1 51.735 83.512zM53.468 82.604V79.963A0.33 0.33 0 0 1 53.798 79.633H56.521A0.33 0.33 0 0 1 56.852 79.963V82.604A0.33 0.33 0 0 1 56.521 82.935H53.798A0.33 0.33 0 0 1 53.468 82.604M50.581 91.434A0.33 0.33 0 0 1 50.91 91.104H53.632A0.33 0.33 0 0 1 53.963 91.434V94.075A0.33 0.33 0 0 1 53.632 94.404H50.91A0.33 0.33 0 0 1 50.581 94.075zM52.808 90.691A0.33 0.33 0 0 1 52.478 90.36V87.72C52.478 87.538 52.624 87.391 52.808 87.391H55.531A0.33 0.33 0 0 1 55.861 87.72V90.361A0.33 0.33 0 0 1 55.531 90.692zM55.696 86.813A0.33 0.33 0 0 1 55.367 86.483V83.842A0.33 0.33 0 0 1 55.696 83.511H58.419A0.33 0.33 0 0 1 58.748 83.842V86.483C58.748 86.666 58.601 86.813 58.419 86.813zM62.378 83.512C62.562 83.512 62.71 83.66 62.71 83.843V86.484A0.33 0.33 0 0 1 62.378 86.814H59.656A0.33 0.33 0 0 1 59.326 86.484V83.843A0.33 0.33 0 0 1 59.656 83.512zM61.389 82.604V79.963A0.33 0.33 0 0 1 61.718 79.633H64.442A0.33 0.33 0 0 1 64.772 79.963V82.604A0.33 0.33 0 0 1 64.442 82.935H61.718A0.33 0.33 0 0 1 61.389 82.604M60.81 82.604A0.33 0.33 0 0 1 60.483 82.935H57.758A0.33 0.33 0 0 1 57.429 82.604V79.963A0.33 0.33 0 0 1 57.758 79.633H60.483C60.664 79.633 60.81 79.781 60.81 79.963zM56.439 87.72C56.439 87.538 56.586 87.391 56.769 87.391H59.491C59.675 87.391 59.821 87.538 59.821 87.72V90.361A0.33 0.33 0 0 1 59.491 90.692H56.769A0.33 0.33 0 0 1 56.439 90.361zM58.5 91.434A0.33 0.33 0 0 1 58.831 91.104H61.554A0.33 0.33 0 0 1 61.884 91.434V94.075A0.33 0.33 0 0 1 61.554 94.404H58.831A0.33 0.33 0 0 1 58.5 94.075zM60.729 90.691A0.33 0.33 0 0 1 60.399 90.36V87.72C60.399 87.538 60.546 87.391 60.729 87.391H63.453C63.636 87.391 63.783 87.538 63.783 87.72V90.361A0.33 0.33 0 0 1 63.453 90.692zM63.617 86.813A0.33 0.33 0 0 1 63.287 86.483V83.842A0.33 0.33 0 0 1 63.617 83.511H66.341A0.33 0.33 0 0 1 66.671 83.842V86.483A0.33 0.33 0 0 1 66.341 86.813zM65.351 82.604V79.963A0.33 0.33 0 0 1 65.68 79.633H68.402A0.33 0.33 0 0 1 68.733 79.963V82.604A0.33 0.33 0 0 1 68.402 82.935H65.68A0.33 0.33 0 0 1 65.351 82.604M64.36 87.72A0.33 0.33 0 0 1 64.691 87.391H67.413A0.33 0.33 0 0 1 67.744 87.72V90.361A0.33 0.33 0 0 1 67.413 90.692H64.691A0.33 0.33 0 0 1 64.36 90.361zM67.578 86.813A0.33 0.33 0 0 1 67.248 86.483V83.842A0.33 0.33 0 0 1 67.578 83.511H70.3A0.33 0.33 0 0 1 70.63 83.842V86.483C70.63 86.666 70.483 86.813 70.3 86.813zM69.31 82.604V79.963A0.33 0.33 0 0 1 69.64 79.633H72.364C72.546 79.633 72.692 79.781 72.692 79.963V82.604A0.33 0.33 0 0 1 72.364 82.935H69.64A0.33 0.33 0 0 1 69.31 82.604M71.539 86.813A0.33 0.33 0 0 1 71.209 86.483V83.842A0.33 0.33 0 0 1 71.539 83.511H74.263A0.33 0.33 0 0 1 74.593 83.842V86.483A0.33 0.33 0 0 1 74.263 86.813zM74.908 77.405C74.908 77.311 75.056 77.233 75.239 77.233H77.962C78.144 77.233 78.293 77.311 78.293 77.405V78.792C78.293 78.889 78.144 78.965 77.962 78.965H75.239C75.056 78.965 74.908 78.889 74.908 78.792zM70.837 77.405C70.837 77.311 70.984 77.233 71.167 77.233H73.89C74.074 77.233 74.22 77.311 74.22 77.405V78.792C74.22 78.889 74.074 78.965 73.89 78.965H71.167C70.984 78.965 70.837 78.889 70.837 78.792zM66.766 77.405C66.766 77.311 66.914 77.233 67.097 77.233H69.82C70.002 77.233 70.15 77.311 70.15 77.405V78.792C70.15 78.889 70.002 78.965 69.82 78.965H67.097C66.914 78.965 66.766 78.889 66.766 78.792zM62.696 77.405C62.696 77.311 62.844 77.233 63.026 77.233H65.749C65.932 77.233 66.08 77.311 66.08 77.405V78.792C66.08 78.889 65.932 78.965 65.749 78.965H63.026C62.844 78.965 62.696 78.889 62.696 78.792zM58.625 77.405C58.625 77.311 58.772 77.233 58.955 77.233H61.678C61.861 77.233 62.008 77.311 62.008 77.405V78.792C62.008 78.889 61.861 78.965 61.678 78.965H58.955C58.772 78.965 58.625 78.889 58.625 78.792zM54.554 77.405C54.554 77.311 54.702 77.233 54.885 77.233H57.608C57.791 77.233 57.938 77.311 57.938 77.405V78.792C57.938 78.889 57.791 78.965 57.608 78.965H54.885C54.703 78.965 54.554 78.889 54.554 78.792zM50.484 77.405C50.484 77.311 50.631 77.233 50.814 77.233H53.537C53.719 77.233 53.867 77.311 53.867 77.405V78.792C53.867 78.889 53.719 78.965 53.537 78.965H50.814C50.631 78.965 50.484 78.889 50.484 78.792zM52.561 79.634A0.33 0.33 0 0 1 52.89 79.964V82.605A0.33 0.33 0 0 1 52.561 82.936H49.837A0.33 0.33 0 0 1 49.507 82.605V79.964A0.33 0.33 0 0 1 49.837 79.634zM46.413 77.405C46.413 77.311 46.561 77.233 46.743 77.233H49.467C49.649 77.233 49.796 77.311 49.796 77.405V78.792C49.796 78.889 49.649 78.965 49.467 78.965H46.743C46.562 78.965 46.413 78.889 46.413 78.792zM48.6 79.634A0.33 0.33 0 0 1 48.93 79.964V82.605A0.33 0.33 0 0 1 48.6 82.936H45.877A0.33 0.33 0 0 1 45.547 82.605V79.964A0.33 0.33 0 0 1 45.877 79.634zM42.343 77.405C42.343 77.311 42.49 77.233 42.674 77.233H45.397C45.579 77.233 45.727 77.311 45.727 77.405V78.792C45.727 78.889 45.58 78.965 45.397 78.965H42.674C42.491 78.965 42.343 78.889 42.343 78.792zM44.639 79.634A0.33 0.33 0 0 1 44.969 79.964V82.605A0.33 0.33 0 0 1 44.639 82.936H41.916A0.33 0.33 0 0 1 41.586 82.605V79.964A0.33 0.33 0 0 1 41.916 79.634zM38.492 77.405C38.492 77.311 38.64 77.233 38.822 77.233H41.546C41.727 77.233 41.875 77.311 41.875 77.405V78.792C41.875 78.889 41.727 78.965 41.546 78.965H38.822C38.64 78.965 38.492 78.889 38.492 78.792zM40.678 79.634A0.33 0.33 0 0 1 41.009 79.964V82.605A0.33 0.33 0 0 1 40.678 82.936H37.955A0.33 0.33 0 0 1 37.625 82.605V79.964A0.33 0.33 0 0 1 37.955 79.634zM34.366 77.405C34.366 77.311 34.514 77.233 34.696 77.233H37.419C37.601 77.233 37.749 77.311 37.749 77.405V78.792C37.749 78.889 37.602 78.965 37.419 78.965H34.696C34.514 78.965 34.366 78.889 34.366 78.792zM33.665 79.964A0.33 0.33 0 0 1 33.996 79.634H36.719A0.33 0.33 0 0 1 37.049 79.964V82.605A0.33 0.33 0 0 1 36.719 82.936H33.996A0.33 0.33 0 0 1 33.665 82.605zM30.241 77.405C30.241 77.311 30.388 77.233 30.571 77.233H33.294C33.476 77.233 33.624 77.311 33.624 77.405V78.792C33.624 78.889 33.476 78.965 33.294 78.965H30.571C30.389 78.965 30.241 78.889 30.241 78.792zM29.705 79.964A0.33 0.33 0 0 1 30.035 79.634H32.758A0.33 0.33 0 0 1 33.088 79.964V82.605A0.33 0.33 0 0 1 32.758 82.936H30.035A0.33 0.33 0 0 1 29.705 82.605zM26.115 77.405C26.115 77.311 26.262 77.233 26.445 77.233H29.168C29.35 77.233 29.498 77.311 29.498 77.405V78.792C29.498 78.889 29.35 78.965 29.168 78.965H26.445C26.262 78.965 26.115 78.889 26.115 78.792zM25.744 79.964A0.33 0.33 0 0 1 26.073 79.634H28.797A0.33 0.33 0 0 1 29.127 79.964V82.605A0.33 0.33 0 0 1 28.797 82.936H26.073A0.33 0.33 0 0 1 25.744 82.605zM21.989 77.405C21.989 77.311 22.137 77.233 22.32 77.233H25.043C25.226 77.233 25.373 77.311 25.373 77.405V78.792C25.373 78.889 25.226 78.965 25.043 78.965H22.32C22.137 78.965 21.989 78.889 21.989 78.792zM21.784 79.964A0.33 0.33 0 0 1 22.114 79.634H24.837A0.33 0.33 0 0 1 25.167 79.964V82.605A0.33 0.33 0 0 1 24.837 82.936H22.114A0.33 0.33 0 0 1 21.784 82.605zM25.166 98.175C25.166 98.37 25.018 98.529 24.836 98.529H22.113C21.93 98.529 21.783 98.37 21.783 98.175V95.337C21.783 95.141 21.93 94.982 22.113 94.982H24.836C25.018 94.982 25.166 95.141 25.166 95.337zM29.127 98.175C29.127 98.37 28.979 98.529 28.797 98.529H26.073C25.892 98.529 25.744 98.37 25.744 98.175V95.337C25.744 95.141 25.892 94.982 26.073 94.982H28.797C28.979 94.982 29.127 95.141 29.127 95.337zM22.745 94.403C22.306 94.403 21.949 94.256 21.949 94.074V91.433C21.949 91.251 22.305 91.103 22.745 91.103H29.32C29.76 91.103 30.117 91.251 30.117 91.433V94.074C30.117 94.256 29.76 94.403 29.32 94.403zM33.087 98.175C33.087 98.37 32.94 98.529 32.757 98.529H30.034C29.852 98.529 29.704 98.37 29.704 98.175V95.337C29.704 95.141 29.852 94.982 30.034 94.982H32.757C32.94 94.982 33.087 95.141 33.087 95.337zM37.956 98.175C37.956 98.37 37.776 98.529 37.554 98.529H34.233C34.011 98.529 33.831 98.37 33.831 98.175V95.337C33.831 95.141 34.011 94.982 34.233 94.982H37.554C37.777 94.982 37.956 95.141 37.956 95.337zM38.121 94.074A0.33 0.33 0 0 1 37.791 94.403H35.068A0.33 0.33 0 0 1 34.738 94.074V91.433A0.33 0.33 0 0 1 35.068 91.103H37.791A0.33 0.33 0 0 1 38.121 91.433zM38.699 91.434A0.33 0.33 0 0 1 39.029 91.104H41.751A0.33 0.33 0 0 1 42.082 91.434V94.075A0.33 0.33 0 0 1 41.751 94.404H39.029A0.33 0.33 0 0 1 38.699 94.075zM57.594 98.256A0.33 0.33 0 0 1 57.264 98.585H39.056A0.33 0.33 0 0 1 38.726 98.256V95.394A0.33 0.33 0 0 1 39.056 95.065H57.264A0.33 0.33 0 0 1 57.594 95.394zM57.924 94.074A0.33 0.33 0 0 1 57.594 94.403H54.87A0.33 0.33 0 0 1 54.54 94.074V91.433A0.33 0.33 0 0 1 54.87 91.103H57.594A0.33 0.33 0 0 1 57.924 91.433zM62.544 98.175C62.544 98.37 62.364 98.529 62.142 98.529H58.821C58.599 98.529 58.419 98.37 58.419 98.175V95.337C58.419 95.141 58.6 94.982 58.821 94.982H62.142C62.365 94.982 62.544 95.141 62.544 95.337zM62.462 94.074V91.433C62.462 91.251 62.608 91.103 62.791 91.103H65.515A0.33 0.33 0 0 1 65.844 91.433V94.074A0.33 0.33 0 0 1 65.515 94.403H62.791A0.33 0.33 0 0 1 62.462 94.074M66.587 98.175C66.587 98.37 66.44 98.529 66.257 98.529H63.533C63.351 98.529 63.204 98.37 63.204 98.175V95.337C63.204 95.141 63.351 94.982 63.533 94.982H66.257C66.44 94.982 66.587 95.141 66.587 95.337zM66.422 94.074V91.433A0.33 0.33 0 0 1 66.753 91.103H69.476A0.33 0.33 0 0 1 69.807 91.433V94.074A0.33 0.33 0 0 1 69.476 94.403H66.753A0.33 0.33 0 0 1 66.422 94.074M70.589 98.513C70.589 98.609 70.442 98.687 70.26 98.687H67.537C67.353 98.687 67.207 98.609 67.207 98.513V97.127C67.207 97.03 67.353 96.953 67.537 96.953H70.26C70.442 96.953 70.589 97.03 70.589 97.127zM74.508 98.553C74.508 98.651 74.362 98.727 74.178 98.727H71.455C71.271 98.727 71.125 98.651 71.125 98.553V97.168C71.125 97.072 71.271 96.995 71.455 96.995H74.178C74.362 96.995 74.508 97.072 74.508 97.168zM74.508 96.573C74.508 96.67 74.362 96.747 74.178 96.747H71.455C71.271 96.747 71.125 96.67 71.125 96.573V95.188C71.125 95.091 71.271 95.014 71.455 95.014H74.178C74.362 95.014 74.508 95.091 74.508 95.188zM78.386 98.505C78.386 98.601 78.239 98.678 78.056 98.678H75.333C75.152 98.678 75.003 98.601 75.003 98.505V97.119C75.003 97.021 75.152 96.946 75.333 96.946H78.056C78.239 96.946 78.386 97.021 78.386 97.119zM78.386 90.36C78.386 90.543 78.12 90.691 77.791 90.691H72.876C72.547 90.691 72.279 90.543 72.279 90.36V87.72C72.279 87.538 72.547 87.391 72.876 87.391H77.791C78.12 87.391 78.386 87.538 78.386 87.72zM78.552 86.483C78.552 86.666 78.405 86.813 78.222 86.813H75.498A0.33 0.33 0 0 1 75.168 86.483V83.842A0.33 0.33 0 0 1 75.498 83.511H78.222A0.33 0.33 0 0 1 78.552 83.842z" fill="#f9f9f9" data-fill-palette-color="accent"></path><path d="M96.375 0H3.301A3.3 3.3 0 0 0 0 3.301V59.574A3.3 3.3 0 0 0 3.301 62.875H96.375A3.3 3.3 0 0 0 99.676 59.574V3.301A3.3 3.3 0 0 0 96.375 0M93.272 56.122H6.404V6.751H93.272z" fill="#f9f9f9" data-fill-palette-color="accent"></path><path d="M39.606 68.702V64.253H60.068V68.702C60.068 69.648 58.96 70.413 57.593 70.413H42.082C40.715 70.413 39.606 69.648 39.606 68.702" fill="#f9f9f9" data-fill-palette-color="accent"></path><path d="M51.025 75.184C51.041 75.179 65.714 68.427 78.812 68.422 80.354 68.422 81.873 68.517 83.347 68.728 88.039 69.397 93.3 69.954 97.866 69.953 102.804 69.965 106.926 69.274 108.571 67.513 109.122 66.929 109.415 66.243 109.418 65.391 109.419 64.191 108.808 62.636 107.375 60.7 99.432 49.942 96.78 48.946 96.632 48.912L96.624 48.91 96.653 48.802 96.728 48.429C96.869 48.473 99.332 49.007 107.77 60.407 109.232 62.388 109.906 64.021 109.908 65.39A3.47 3.47 0 0 1 108.928 67.85C108.3 68.511 107.409 69.013 106.324 69.396 104.154 70.157 101.185 70.446 97.865 70.446 93.261 70.446 87.984 69.886 83.276 69.213A32 32 0 0 0 78.811 68.915C69.109 68.913 58.434 72.691 53.714 74.584A60 60 0 0 0 51.23 75.63z" fill="#f9f9f9" data-fill-palette-color="accent"></path><path d="M92.434 77.643H91.684A5 5 0 0 0 86.684 82.643V90.393A5 5 0 0 0 91.684 95.393H92.434A5 5 0 0 0 97.434 90.393V82.643A5 5 0 0 0 92.434 77.643M92.059 83.309A0.584 0.584 0 0 1 92.059 82.143C92.381 82.143 92.643 82.405 92.643 82.726S92.381 83.309 92.059 83.309" fill="#f9f9f9" data-fill-palette-color="accent"></path></svg></g></svg></g><g><rect width="64.14968756254817" height="5.931117656857682" y="83.96166123457614" x="256.8147924374518" fill="#f9cc0b" data-fill-palette-color="secondary"></rect><rect width="64.14968756254817" height="5.931117656857682" y="83.96166123457614" x="76.53311999999997" fill="#f9cc0b" data-fill-palette-color="secondary"></rect></g></svg></g><defs></defs></svg><rect width="395.52" height="192.68247133386683" fill="none" stroke="none" visibility="hidden"></rect></g></svg></g></svg>